<svg width="21" height="11" viewBox="0 0 21 11" fill="none" xmlns="http://www.w3.org/2000/svg">
<g clip-path="url(#clip0_642_4284)">
<path d="M10.5365 3.48096C9.43745 3.48096 8.54736 4.38514 8.54736 5.49956C8.54736 6.61491 9.43837 7.51817 10.5365 7.51817C11.6356 7.51817 12.5257 6.61398 12.5257 5.49956C12.5257 4.38514 11.6347 3.48096 10.5365 3.48096ZM11.7915 5.67258L10.8418 6.22886L9.89212 6.78514C9.76104 6.86142 9.59787 6.76561 9.59787 6.61305V5.50049V4.387C9.59787 4.23352 9.76104 4.13863 9.89212 4.21491L10.8418 4.77119L11.7915 5.32747C11.9225 5.40468 11.9225 5.59538 11.7915 5.67258Z" fill="white"/>
<path d="M16.4846 9.5721C16.3453 9.5721 16.205 9.53303 16.0785 9.45117C15.7265 9.22326 15.6239 8.74884 15.8484 8.39163C16.3911 7.52838 16.678 6.52838 16.678 5.49954C16.678 4.46977 16.3911 3.46977 15.8484 2.60652C15.6239 2.24931 15.7265 1.77489 16.0785 1.54698C16.4305 1.31908 16.898 1.42326 17.1226 1.78047C17.8211 2.89024 18.1896 4.17675 18.1896 5.49861C18.1896 6.82047 17.8211 8.10698 17.1226 9.21675C16.9787 9.44745 16.7339 9.5721 16.4846 9.5721Z" fill="white"/>
<path d="M18.9206 11C18.7849 11 18.6474 10.9628 18.5237 10.8847C18.1689 10.6614 18.0589 10.1889 18.2789 9.82887C19.07 8.53119 19.4889 7.03445 19.4889 5.49956C19.4889 3.96468 19.0709 2.46794 18.2789 1.17026C18.0589 0.810262 18.1689 0.336774 18.5237 0.114448C18.8784 -0.108807 19.345 0.00282057 19.5641 0.362821C20.5037 1.90329 21.0005 3.6791 21.0005 5.49956C21.0005 7.32003 20.5037 9.09584 19.5641 10.6363C19.4211 10.8707 19.1745 11 18.9206 11Z" fill="white"/>
<path d="M14.0661 8.11164C13.9203 8.11164 13.7736 8.06885 13.6435 7.98048C13.2979 7.74327 13.2062 7.26606 13.44 6.91536C13.7186 6.49675 13.8653 6.00745 13.8653 5.50048C13.8653 4.98234 13.7122 4.48466 13.4235 4.06141C13.186 3.7135 13.2713 3.23536 13.615 2.9935C13.9579 2.75257 14.4291 2.83908 14.6665 3.18699C15.1312 3.86885 15.3769 4.66792 15.3769 5.49955C15.3769 6.31443 15.1404 7.10048 14.6921 7.77303C14.5473 7.9935 14.309 8.11164 14.0661 8.11164Z" fill="white"/>
<path d="M4.51702 9.57219C4.26768 9.57219 4.02293 9.44661 3.87902 9.21777C3.18143 8.10801 2.81201 6.82242 2.81201 5.50056C2.81201 4.17777 3.18143 2.89219 3.87902 1.78242C4.1036 1.42521 4.5711 1.32103 4.9231 1.54894C5.27511 1.77684 5.37869 2.25126 5.15319 2.60847C4.61052 3.47173 4.3236 4.47173 4.3236 5.50149C4.3236 6.53033 4.61052 7.53126 5.15319 8.39359C5.37777 8.7508 5.27419 9.22522 4.9231 9.45312C4.79752 9.53312 4.65635 9.57219 4.51702 9.57219Z" fill="white"/>
<path d="M2.0809 11.0003C1.8279 11.0003 1.5804 10.871 1.4374 10.6366C0.497812 9.09613 0.000976562 7.32032 0.000976562 5.50079C0.000976562 3.68032 0.497812 1.90451 1.4374 0.364041C1.6574 0.00404127 2.12307 -0.107587 2.47782 0.115669C2.83257 0.338925 2.94257 0.811483 2.72257 1.17148C1.93148 2.46916 1.51257 3.9659 1.51257 5.50079C1.51257 7.03567 1.93057 8.53241 2.72257 9.83009C2.94257 10.1901 2.83257 10.6636 2.47782 10.8859C2.35407 10.9631 2.21657 11.0003 2.0809 11.0003Z" fill="white"/>
<path d="M6.93529 8.11172C6.69237 8.11172 6.45404 7.99359 6.30829 7.77405C5.86004 7.10149 5.62354 6.31452 5.62354 5.50056C5.62354 4.66893 5.8692 3.86987 6.33395 3.188C6.57137 2.8401 7.04254 2.75266 7.38538 2.99452C7.72821 3.23545 7.81438 3.71359 7.57604 4.06242C7.28729 4.48568 7.13421 4.98335 7.13421 5.50149C7.13421 6.00847 7.28179 6.49777 7.55954 6.91638C7.79329 7.26707 7.70254 7.74428 7.35604 7.98149C7.22862 8.06893 7.08104 8.11172 6.93529 8.11172Z" fill="white"/>
</g>
<defs>
<clipPath id="clip0_642_4284">
<rect width="21" height="11" fill="white"/>
</clipPath>
</defs>
</svg>
