<svg width="142" height="142" viewBox="0 0 142 142" fill="none" xmlns="http://www.w3.org/2000/svg">
<path d="M70.9997 18.3948C56.9478 18.3948 43.7387 23.8656 33.8016 33.8028C23.8644 43.7399 18.3936 56.949 18.3936 71.0009C18.3936 85.0529 23.8644 98.262 33.8016 108.199C43.7387 118.136 56.9478 123.607 70.9997 123.607C85.0517 123.607 98.2607 118.136 108.198 108.199C118.135 98.262 123.606 85.0529 123.606 71.0009C123.606 56.949 118.135 43.7399 108.198 33.8028C98.2607 23.8656 85.0517 18.3948 70.9997 18.3948Z" fill="#1D1D1B"/>
<path d="M106.5 106.5C126.106 86.8939 126.106 55.1061 106.5 35.5C86.8939 15.8939 55.1061 15.8939 35.5 35.5C15.8939 55.1061 15.8939 86.8939 35.5 106.5C55.1061 126.106 86.8939 126.106 106.5 106.5Z" fill="#008DD0"/>
<path d="M106.5 106.5C126.106 86.8939 126.106 55.1061 106.5 35.5C86.8939 15.8939 55.1061 15.8939 35.5 35.5C15.8939 55.1061 15.8939 86.8939 35.5 106.5C55.1061 126.106 86.8939 126.106 106.5 106.5Z" fill="black"/>
<path d="M114.958 88.9721C124.883 64.6939 113.248 36.9666 88.9695 27.0413C64.6914 17.116 36.964 28.7513 27.0387 53.0294C17.1134 77.3076 28.7487 105.035 53.0269 114.96C77.305 124.886 105.032 113.25 114.958 88.9721Z" fill="#0A477E"/>
<path d="M103.588 103.588C121.586 85.5902 121.586 56.4098 103.588 38.4118C85.5899 20.4138 56.4094 20.4138 38.4115 38.4118C20.4135 56.4098 20.4135 85.5902 38.4115 103.588C56.4094 121.586 85.5899 121.586 103.588 103.588Z" fill="#70C8DD"/>
<path d="M94.0406 31.0814C87.2635 27.1594 79.3915 24.9138 70.9971 24.9138V71.001L94.0406 31.0814Z" fill="white"/>
<path d="M71.0006 24.9138C62.6061 24.9138 54.7373 27.1594 47.957 31.0814L71.0006 71.001V24.9138Z" fill="black"/>
<path d="M117.087 71.0011C117.087 62.6066 114.842 54.7378 110.92 47.9575L71 71.0011H117.087Z" fill="white"/>
<path d="M47.9561 31.0814C40.9581 35.1278 35.1265 40.9626 31.0801 47.9574L70.9997 71.001L47.9561 31.0814Z" fill="white"/>
<path d="M31.0806 47.9575C27.1587 54.7347 24.9131 62.6066 24.9131 71.0011H71.0002L31.0806 47.9575Z" fill="black"/>
<path d="M110.92 47.9574C106.873 40.9595 101.038 35.1278 94.0436 31.0814L71 71.001L110.92 47.9574Z" fill="black"/>
<path d="M94.0406 110.921C101.039 106.874 106.87 101.039 110.917 94.0445L70.9971 71.001L94.0406 110.921Z" fill="white"/>
<path d="M71 117.088C79.3945 117.088 87.2633 114.843 94.0436 110.921L71 71.001V117.088Z" fill="black"/>
<path d="M71 71.001L110.92 94.0445C114.842 87.2674 117.087 79.3954 117.087 71.001H71Z" fill="black"/>
<path d="M31.0801 94.0415C35.1265 101.036 40.9612 106.871 47.9561 110.918L70.9997 70.9979L31.0801 94.0415Z" fill="black"/>
<path d="M47.957 110.921C54.7342 114.843 62.6061 117.088 71.0006 117.088V71.001L47.957 110.921Z" fill="white"/>
<path d="M24.9131 71.001C24.9131 79.3954 27.1587 87.2643 31.0806 94.0445L71.0002 71.001H24.9131Z" fill="white"/>
<path d="M71.3421 25.2591C79.1488 25.3181 86.8217 27.3709 93.5739 31.2089L71.3421 69.7227V25.2591ZM71 24.9138V71.001L94.0436 31.0814C87.2633 27.1594 79.3945 24.9138 71 24.9138Z" fill="white"/>
<path d="M70.6554 25.2591V69.7196L48.4267 31.2058C55.1758 27.3678 62.8487 25.315 70.6554 25.2591ZM71.0006 24.9138C62.6061 24.9138 54.7373 27.1594 47.957 31.0814L71.0006 71.001V24.9138Z" fill="white"/>
<path d="M110.792 48.4272C114.63 55.1794 116.683 62.8492 116.742 70.659H72.2783L110.792 48.4272ZM110.92 47.9575L71 71.0011H117.087C117.087 62.6066 114.842 54.7347 110.92 47.9575Z" fill="white"/>
<path d="M47.8317 31.5511L70.0635 70.0648L31.5497 47.833C35.4997 41.1212 41.1198 35.501 47.8317 31.5511ZM47.9561 31.0814C40.9581 35.1278 35.1265 40.9626 31.0801 47.9574L70.9997 71.001L47.9561 31.0814Z" fill="white"/>
<path d="M31.205 48.4272L69.7188 70.659H25.2583C25.3143 62.8492 27.367 55.1794 31.205 48.4272ZM31.0806 47.9575C27.1587 54.7347 24.9131 62.6066 24.9131 71.0011H71.0002L31.0806 47.9575Z" fill="white"/>
<path d="M94.1682 31.5511C100.88 35.501 106.5 41.1212 110.45 47.833L71.9364 70.0648L94.1682 31.5511ZM94.0406 31.0814L70.9971 71.001L110.917 47.9574C106.873 40.9595 101.039 35.1278 94.0406 31.0814Z" fill="white"/>
<path d="M71.9362 71.9371L110.45 94.169C106.5 100.881 100.88 106.501 94.168 110.451L71.9362 71.9371ZM71 71.001L94.0436 110.921C101.042 106.874 106.873 101.039 110.92 94.0445L71 71.001Z" fill="white"/>
<path d="M71.3421 72.2824L93.5739 110.796C86.8217 114.634 79.1519 116.687 71.3421 116.746V72.2824ZM71 71.001V117.088C79.3945 117.088 87.2633 114.843 94.0436 110.921L71 71.001Z" fill="white"/>
<path d="M116.742 71.3431C116.683 79.1497 114.63 86.8226 110.792 93.5749L72.2783 71.3431H116.742ZM117.087 71.001H71L110.92 94.0445C114.842 87.2643 117.087 79.3954 117.087 71.001Z" fill="white"/>
<path d="M70.0604 71.9371L47.8317 110.451C41.1198 106.498 35.4997 100.881 31.5497 94.169L70.0604 71.9371ZM70.9997 71.001L31.0801 94.0414C35.1265 101.036 40.9612 106.871 47.9561 110.917L70.9997 71.001Z" fill="white"/>
<path d="M70.6554 72.2824V116.743C62.8487 116.684 55.1758 114.631 48.4236 110.793L70.6554 72.2824ZM71.0006 71.001L47.957 110.921C54.7342 114.843 62.6061 117.088 71.0006 117.088V71.001Z" fill="white"/>
<path d="M69.7188 71.3431L31.205 93.5749C27.367 86.8226 25.3143 79.1528 25.2552 71.3431H69.7188ZM71.0002 71.001H24.9131C24.9131 79.3954 27.1587 87.2643 31.0806 94.0445L71.0002 71.001Z" fill="white"/>
<path d="M89.9534 71.0352C89.9534 81.5042 81.4656 89.9919 70.9997 89.9919C60.5307 89.9919 52.043 81.5042 52.043 71.0352C52.043 60.5662 60.5307 52.0815 70.9997 52.0815C81.4656 52.0815 89.9534 60.5662 89.9534 71.0352Z" fill="#706F6F"/>
<path d="M88.7256 71.001C88.7256 80.7919 80.7883 88.7261 71.0005 88.7261C61.2095 88.7261 53.2754 80.7888 53.2754 71.001C53.2754 61.2131 61.2095 53.2759 71.0005 53.2759C80.7883 53.2759 88.7256 61.21 88.7256 71.001Z" fill="#1D3B79"/>
<path d="M88.7069 71.7226C88.7163 71.4831 88.7256 71.2436 88.7256 71.001C88.7256 61.21 80.7883 53.2759 71.0005 53.2759C61.2095 53.2759 53.2754 61.2131 53.2754 71.001C53.2754 71.2436 53.2847 71.4831 53.2941 71.7226H88.7069Z" fill="#00549C"/>
<path d="M85.0647 71.001C85.0647 78.7703 78.7665 85.0685 70.9972 85.0685C63.2279 85.0685 56.9297 78.7703 56.9297 71.001C56.9297 63.2317 63.2279 56.9335 70.9972 56.9335C78.7665 56.9335 85.0647 63.2317 85.0647 71.001Z" fill="#241954"/>
<path d="M84.035 71.0009C84.035 78.2011 78.1971 84.0389 70.997 84.0389C63.7969 84.0389 57.959 78.2011 57.959 71.0009C57.959 63.8008 63.7969 57.9629 70.997 57.9629C78.2003 57.9629 84.035 63.8008 84.035 71.0009Z" fill="black"/>
<path d="M71.2735 60.1899L74.3153 66.3544L81.1173 67.3403L76.197 72.1394L77.3571 78.9134L71.2735 75.713L65.1899 78.9134L66.3532 72.1394L61.4297 67.3403L68.2317 66.3544L71.2735 60.1899Z" fill="white"/>
<g opacity="0.4">
<path d="M74.3152 66.3544L71.2734 60.1899V70.5376L74.3152 66.3544Z" fill="white"/>
<path d="M71.2734 70.5376V70.5407L76.1969 72.1394L81.1173 67.3403L71.2734 70.5376Z" fill="white"/>
<path d="M71.2734 75.7131L77.357 78.9135L71.2734 70.5408V75.7131Z" fill="white"/>
<path d="M66.3527 72.1394L65.1895 78.9135L71.273 70.5408L66.3527 72.1394Z" fill="white"/>
<path d="M71.2735 70.5376L68.2317 66.3544L61.4297 67.3403L71.2735 70.5407V70.5376Z" fill="white"/>
</g>
<path opacity="0.5" d="M71.1797 60.5786L71.0117 67.7321L71.2232 70.3074L71.217 68.6838L71.1797 60.5786Z" fill="white"/>
<path opacity="0.5" d="M71.5723 70.3076L80.7287 67.3684L74.0667 69.3278L71.5723 70.3076Z" fill="white"/>
<path opacity="0.5" d="M71.4883 70.6932L77.2017 78.4874L73.5628 73.1938L71.4883 70.6932Z" fill="white"/>
<path opacity="0.5" d="M71.1708 70.8051L65.6377 78.5713L69.5286 73.4456L71.1708 70.8051Z" fill="white"/>
<path opacity="0.5" d="M61.9678 67.5923L70.9843 70.5345L68.381 69.9436L61.9678 67.5923Z" fill="white"/>
<path d="M53.5547 71.2934C53.5547 71.2934 54.326 57.428 66.6767 54.4547C66.6767 54.4547 74.9094 52.0536 80.7442 56.9708C80.7411 56.9708 59.6414 47.1923 53.5547 71.2934Z" fill="#008FCD"/>
<path opacity="0.6" d="M69.9363 58.9428C69.9363 58.9428 63.4173 59.456 59.8157 66.4913C59.8157 66.4913 56.043 74.469 63.7595 80.9849C63.7595 80.9849 60.1609 75.8624 63.9305 69.5766C68.0484 62.7155 77.5688 61.7731 81.8578 64.6874C81.8578 64.6874 77.998 57.9133 69.9363 58.9428Z" fill="#F0F8FD"/>
<path d="M70.702 20.488H64.5967L71.0006 39.3017L77.4014 20.488H70.702Z" fill="#706F6F"/>
<path d="M71.0004 37.2427L64.1113 17.0015H77.8896L71.0004 37.2427Z" fill="#E53818"/>
<path d="M71 37.2427L70.6797 17.0015H77.8892L71 37.2427Z" fill="#AC2E0F"/>
<path d="M64.877 17.8599L70.4505 34.4995L70.0212 31.5821L64.877 17.8599Z" fill="#E85045"/>
<path d="M70.449 11.4187L72.1379 14.8399L75.9137 15.3873L73.1798 18.0497L73.8267 21.8099L70.449 20.0371L67.0713 21.8099L67.7183 18.0497L64.9844 15.3873L68.7602 14.8399L70.449 11.4187Z" fill="#F9B105"/>
<g opacity="0.4">
<path d="M72.1381 14.8399L70.4492 11.4187V17.1633L72.1381 14.8399Z" fill="#D95915"/>
<path d="M70.4492 17.1633L73.18 18.0497L75.9139 15.3873L70.4492 17.1633Z" fill="#D95915"/>
<path d="M70.4492 20.0372L73.8269 21.81L70.4492 17.1633V20.0372Z" fill="#D95915"/>
<path d="M67.7182 18.0497L67.0713 21.81L70.449 17.1633L67.7182 18.0497Z" fill="#D95915"/>
<path d="M70.449 17.1633L68.7602 14.84L64.9844 15.3874L70.449 17.1633Z" fill="#D95915"/>
</g>
<path opacity="0.5" d="M70.396 11.6333L70.3027 15.605L70.4209 17.0357L70.4147 16.1338L70.396 11.6333Z" fill="white"/>
<path opacity="0.5" d="M70.6143 17.0357L75.6964 15.4028L71.9983 16.4914L70.6143 17.0357Z" fill="white"/>
<path opacity="0.5" d="M70.5674 17.2472L73.7398 21.5735L71.7182 18.6375L70.5674 17.2472Z" fill="white"/>
<path opacity="0.5" d="M70.3932 17.3094L67.3203 21.6202L69.4788 18.7775L70.3932 17.3094Z" fill="white"/>
<path opacity="0.5" d="M65.2832 15.5273L70.2875 17.1602L68.8413 16.8336L65.2832 15.5273Z" fill="white"/>
</svg>
