<svg width="124" height="64" viewBox="0 0 124 64" fill="none" xmlns="http://www.w3.org/2000/svg">
<g clip-path="url(#clip0_19_220)">
<path d="M62.2134 20.2527C55.7235 20.2527 50.4678 25.5134 50.4678 31.9973C50.4678 38.4866 55.7289 43.7419 62.2134 43.7419C68.7032 43.7419 73.959 38.4812 73.959 31.9973C73.959 25.5134 68.6978 20.2527 62.2134 20.2527ZM69.6234 33.004L64.0158 36.2405L58.4082 39.477C57.6342 39.9208 56.6707 39.3634 56.6707 38.4758V32.0027V25.5242C56.6707 24.6312 57.6342 24.0792 58.4082 24.523L64.0158 27.7595L69.6234 30.996C70.3974 31.4452 70.3974 32.5548 69.6234 33.004Z" fill="white"/>
<path d="M97.3319 55.6921C96.5091 55.6921 95.681 55.4648 94.934 54.9885C92.8555 53.6625 92.2493 50.9023 93.5754 48.824C96.7798 43.8014 98.4739 37.9832 98.4739 31.9972C98.4739 26.0059 96.7798 20.1877 93.5754 15.1651C92.2493 13.0868 92.8555 10.3266 94.934 9.00055C97.0125 7.67454 99.773 8.28072 101.099 10.359C105.224 16.8159 107.4 24.301 107.4 31.9918C107.4 39.6827 105.224 47.1678 101.099 53.6246C100.249 54.9669 98.8041 55.6921 97.3319 55.6921Z" fill="white"/>
<path d="M111.718 63.9999C110.917 63.9999 110.105 63.7835 109.374 63.3288C107.28 62.0299 106.63 59.2804 107.929 57.1859C112.6 49.6358 115.074 40.9275 115.074 31.9972C115.074 23.067 112.606 14.3587 107.929 6.80857C106.63 4.71402 107.28 1.95918 109.374 0.665649C111.469 -0.633294 114.224 0.0161775 115.518 2.11072C121.066 11.0734 124 21.4054 124 31.9972C124 42.589 121.066 52.921 115.518 61.8837C114.674 63.2476 113.217 63.9999 111.718 63.9999Z" fill="white"/>
<path d="M83.0528 47.1949C82.1922 47.1949 81.3261 46.946 80.5575 46.4318C78.5169 45.0517 77.9756 42.2752 79.3559 40.2348C81.0014 37.7992 81.8674 34.9524 81.8674 32.0027C81.8674 28.9881 80.9635 26.0925 79.2585 23.6299C77.8566 21.6057 78.36 18.8238 80.3897 17.4167C82.4141 16.0149 85.1962 16.5182 86.5981 18.5424C89.3424 22.5096 90.793 27.1587 90.793 31.9973C90.793 36.7384 89.3965 41.3118 86.7497 45.2249C85.8945 46.5076 84.4871 47.1949 83.0528 47.1949Z" fill="white"/>
<path d="M26.6682 55.6922C25.196 55.6922 23.7508 54.9615 22.901 53.6301C18.7819 47.1733 16.6006 39.6935 16.6006 32.0027C16.6006 24.3065 18.7819 16.8267 22.901 10.3699C24.2271 8.29158 26.9876 7.68541 29.0661 9.01141C31.1446 10.3374 31.7562 13.0977 30.4247 15.176C27.2203 20.1986 25.5262 26.0167 25.5262 32.0081C25.5262 37.9941 27.2203 43.8177 30.4247 48.8348C31.7508 50.9131 31.1392 53.6734 29.0661 54.9994C28.3245 55.4649 27.491 55.6922 26.6682 55.6922Z" fill="white"/>
<path d="M12.2815 64.0001C10.7876 64.0001 9.32612 63.2478 8.48173 61.8839C2.93369 52.9212 0 42.5892 0 32.0028C0 21.4111 2.93369 11.079 8.48173 2.11634C9.78078 0.0217928 12.5304 -0.627679 14.6252 0.671264C16.7199 1.97021 17.3694 4.71964 16.0704 6.81418C11.3992 14.3643 8.92558 23.0726 8.92558 32.0028C8.92558 40.9331 11.3938 49.6414 16.0704 57.1915C17.3694 59.2861 16.7199 62.0409 14.6252 63.3344C13.8945 63.7836 13.0825 64.0001 12.2815 64.0001Z" fill="white"/>
<path d="M40.9468 47.1949C39.5124 47.1949 38.1051 46.5076 37.2445 45.2303C34.5977 41.3172 33.2012 36.7384 33.2012 32.0027C33.2012 27.1641 34.6518 22.515 37.396 18.5478C38.7979 16.5236 41.5801 16.0149 43.6044 17.4221C45.6288 18.8238 46.1376 21.6058 44.7303 23.6354C43.0253 26.0979 42.1213 28.9935 42.1213 32.0081C42.1213 34.9578 42.9928 37.8047 44.6328 40.2402C46.0131 42.2806 45.4772 45.0571 43.4312 46.4372C42.6788 46.946 41.8074 47.1949 40.9468 47.1949Z" fill="white"/>
</g>
<defs>
<clipPath id="clip0_19_220">
<rect width="124" height="64" fill="white"/>
</clipPath>
</defs>
</svg>
