<svg width="15" height="15" viewBox="0 0 15 15" fill="none" xmlns="http://www.w3.org/2000/svg">
<path d="M12.8208 3.49125L12.4789 3.83313C12.3048 4.00717 12.0688 4.10495 11.8226 4.10495C11.5765 4.10495 11.3404 4.00717 11.1663 3.83313C10.9923 3.65908 10.8945 3.42302 10.8945 3.17687C10.8945 2.93073 10.9923 2.69467 11.1663 2.52063L11.5082 2.17875L9.32933 0L6.57916 2.75L6.45415 3.12781L6.07632 3.25281L0 9.32875L2.18014 11.5087L2.52203 11.1669C2.69609 10.9928 2.93217 10.895 3.17832 10.895C3.42448 10.895 3.66056 10.9928 3.83461 11.1669C4.00867 11.3409 4.10646 11.577 4.10646 11.8231C4.10646 12.0693 4.00867 12.3053 3.83461 12.4794L3.49272 12.8212L5.6716 15L11.747 8.925L11.872 8.54719L12.2498 8.42219L15 5.67219L12.8208 3.49125ZM6.30289 3.66094L6.98637 2.9775L8.01769 4.00875L7.3339 4.69219L6.30289 3.66094ZM7.64673 5.00469L8.33052 4.32094L9.34683 5.33719L8.66304 6.02094L7.64673 5.00469ZM8.97681 6.33469L9.6606 5.65094L10.6769 6.66719L9.99437 7.3525L8.97681 6.33469ZM11.3385 8.69594L10.3072 7.66469L10.9907 6.98094L12.022 8.01219L11.3385 8.69594Z" fill="#FF2525"/>
</svg>
