<svg width="90" height="88" viewBox="0 0 90 88" fill="none" xmlns="http://www.w3.org/2000/svg">
<path d="M81.6473 27.2174L74.7435 35.3618C75.6006 38.3117 76.0646 41.4322 76.0646 44.6615C76.0646 63.0668 61.097 78.0392 42.6869 78.0392C24.2768 78.0392 9.3092 63.0715 9.3092 44.6615C9.3092 26.2514 24.2768 11.2838 42.6869 11.2838C48.601 11.2838 54.1648 12.8322 58.9851 15.5406L65.0934 8.33855C58.5826 4.29478 50.9023 1.96985 42.6916 1.96985C19.1487 1.96985 0 21.1186 0 44.6567C0 68.1949 19.1487 87.3484 42.6916 87.3484C66.2345 87.3484 85.3833 68.1997 85.3833 44.6567C85.3785 38.449 84.0432 32.5396 81.6473 27.2174Z" fill="white"/>
<path d="M47.3979 59.6101L26.3125 38.5248L36.5593 28.2827L46.5219 38.2454L78.9478 0L89.9996 9.37076L47.3979 59.6101Z" fill="white"/>
</svg>
