<svg width="14" height="15" viewBox="0 0 14 15" fill="none" xmlns="http://www.w3.org/2000/svg">
<path d="M11.6667 8.25045L14 10.5003V13.5001C14 13.8979 13.8361 14.2794 13.5444 14.5607C13.2527 14.842 12.857 15 12.4444 15H1.55556C1.143 15 0.747335 14.842 0.455612 14.5607C0.163888 14.2794 0 13.8979 0 13.5001V10.5003L2.33333 8.25045H2.97889L4.53444 9.75035H2.94L1.55556 11.2503H12.4444L11.0678 9.75035H9.58222L11.1378 8.25045H11.6667ZM12.4444 13.5001V12.7502H1.55556V13.5001H12.4444ZM6.48667 9.75035L2.63667 6.0531C2.56456 5.98372 2.50736 5.90131 2.46833 5.81058C2.4293 5.71986 2.40921 5.62261 2.40921 5.52439C2.40921 5.42617 2.4293 5.32891 2.46833 5.23819C2.50736 5.14746 2.56456 5.06505 2.63667 4.99567L7.59111 0.218492C7.66232 0.148672 7.74736 0.0933558 7.84117 0.0558265C7.93497 0.0182972 8.03564 -0.000680812 8.1372 1.8654e-05C8.23876 0.00071812 8.33914 0.0210808 8.43238 0.0598983C8.52562 0.0987159 8.60983 0.155197 8.68 0.225991L12.53 3.93824C12.8333 4.23072 12.8333 4.70319 12.53 4.99567L7.58333 9.75035C7.5133 9.82309 7.42846 9.8811 7.33411 9.92078C7.23976 9.96045 7.13793 9.98093 7.035 9.98093C6.93207 9.98093 6.83024 9.96045 6.73589 9.92078C6.64155 9.8811 6.5567 9.82309 6.48667 9.75035ZM8.13556 1.80839L4.27778 5.52064L7.03889 8.17546L10.8889 4.46321L8.13556 1.80839Z" fill="white"/>
</svg>
